<?xml version="1.0" encoding="UTF-8"?>
<svg id="Guides" xmlns="http://www.w3.org/2000/svg" viewBox="0 0 1224 351">
  <defs>
    <style>
      .cls-1 {
        fill: #00cb98;
      }

      .cls-2 {
        fill: #06f;
      }
    </style>
  </defs>
  <g>
    <path d="M452.95,191.87l18.5-8.53c2.89,6.94,8.38,13.58,18.06,13.58,6.79,0,13.01-3.32,13.01-11.27,0-6.07-3.32-8.96-13.15-12.86l-6.36-2.46c-13.73-5.49-26.3-13.01-26.3-29.62,0-17.77,14.88-28.61,32.66-28.61s28.9,10.98,33.81,21.82l-16.91,9.54c-4.48-7.8-9.68-11.13-16.04-11.13s-10.98,2.89-10.98,8.67c0,4.48,2.6,7.95,13.29,12.28l6.94,2.75c18.5,7.37,26.73,15.75,26.73,29.91,0,21.39-19.07,31.65-36.41,31.65s-32.95-10.69-36.85-25.72Z"/>
    <path d="M537.63,113.54h22.4v36.99c4.19-6.36,11.56-10.98,22.25-10.98,15.17,0,28.03,9.39,28.03,32.37v44.22h-22.4v-40.32c0-9.39-4.77-16.33-14.02-16.33s-13.87,6.94-13.87,16.33v40.32h-22.4v-102.6Z"/>
    <path d="M621.72,178.57c0-26.16,18.79-39.02,35.84-39.02,13.29,0,21.1,7.22,22.25,9.97h.43v-8.53h22.4v75.14h-22.4v-8.53h-.43c-1.16,2.75-8.96,9.97-22.25,9.97-17.05,0-35.84-12.86-35.84-39.02ZM662.18,197.65c9.83,0,18.64-6.79,18.64-19.07s-8.82-19.07-18.64-19.07-18.35,6.94-18.35,19.07,8.82,19.07,18.35,19.07Z"/>
    <path d="M742.37,215.27l-31.21-74.27h22.83l19.07,48.84,19.07-48.84h22.83l-31.5,75.14-11.56,27.46h-21.96l12.43-28.32Z"/>
    <path d="M804.93,141h22.4v20.37c2.46-12.14,9.68-21.82,23.26-21.82,1.73,0,3.47.14,5.35.72v21.24c-1.73-.29-3.32-.43-5.2-.43-14.88,0-23.41,9.97-23.41,24.13v30.92h-22.4v-75.14Z"/>
    <path d="M920.09,216.14v-8.53h-.43c-1.16,2.75-8.96,9.97-22.25,9.97-17.05,0-35.84-12.86-35.84-39.02s18.79-39.02,35.84-39.02c13.29,0,21.1,7.22,22.25,9.97h.43v-35.98h22.4v102.6h-22.4ZM902.03,197.65c9.83,0,18.64-6.79,18.64-19.07s-8.82-19.07-18.64-19.07-18.35,6.94-18.35,19.07,8.82,19.07,18.35,19.07Z"/>
    <path d="M1015.17,113.54l39.16,102.6h-24.71l-5.78-16.33h-41.62l-5.78,16.33h-24.71l39.16-102.6h24.28ZM1016.18,178.72l-13.15-36.99-13.15,36.99h26.3Z"/>
    <path d="M1063.57,113.54h22.4v19.51h-22.4v-19.51ZM1063.57,141h22.4v75.14h-22.4v-75.14Z"/>
    <path d="M1100.99,141h22.4v20.37c2.46-12.14,9.68-21.82,23.26-21.82,1.73,0,3.47.14,5.35.72v21.24c-1.73-.29-3.32-.43-5.2-.43-14.88,0-23.41,9.97-23.41,24.13v30.92h-22.4v-75.14Z"/>
  </g>
  <g>
    <circle class="cls-1" cx="260.26" cy="87.38" r="12.1"/>
    <path class="cls-2" d="M112.95,247.47c5.72-5.98,9.05-10.5,13.18-15.86,10.54-13.68,15.8-20.52,19.16-23.54,4.84-4.35,19.31-15.89,39.41-15.88,4.72,0,16.57.65,27.92,8.21,1.94,1.29,13.64,9.13,14.78,19.71.26,2.36-.09,4.19-.78,5.72-1.89,4.11-6.6,6.47-10.77,6.49-3.16.02-5.6-1.3-6.32-1.71-2.54-1.42-2.78-2.69-5.81-4.61-1.71-1.08-3.28-2.07-5.47-2.39-4.73-.69-8.56,2.32-9.74,3.25-1.06.83-2.8,2.19-3.93,4.61-1.99,4.25-.6,8.53-.26,9.57,2.33,7.16,9.99,10.3,14.87,12.31,0,0,0,0,0,0,8.56,3.51,17.71,4.01,26.16-.02,5.58-2.65,10.56-6.42,16.05-9.25,21.21-10.95,49.22-5.88,65.96,11.14,5.2,5.28,9.47,11.61,15.62,15.74,7.52,5.05,17.53,6.18,25.99,2.93,6.55-2.51,12.19-7.45,19.11-8.64,8.58-1.47,14.82,3.59,22.29,5.96-23.11-41.82-47.41-83.2-70.76-124.96-1.66-2.98-3.62-5.93-5.04-9.03-5.97-13.08-20.71-13.01-26.63,0-4.63,10.2-19.26,39.5-21.28,44.47-3.38-5.47-44.89-76.25-53.28-90.78-8.3-14.38-29.04-14.38-37.34,0,0,0-102.09,177.23-104.05,177.21,4.51.73,7.86.17,9.97-.41,2-.55,4.39-1.75,9.1-4.13,1.66-.84,4.35-2.2,6.11-3.19,5.75-3.23,10.77-7.68,15.77-12.91Z"/>
  </g>
</svg>