<svg width="98" height="96" xmlns="http://www.w3.org/2000/svg" xmlns:xlink="http://www.w3.org/1999/xlink" xml:space="preserve" overflow="hidden"><g transform="translate(-30 -28)"><g><g><g><g><path d="M111 44.2C111 48.066 107.866 51.2 104 51.2 100.134 51.2 97 48.066 97 44.2 97 40.334 100.134 37.2 104 37.2 107.866 37.2 111 40.334 111 44.2Z" fill="#FFFFFF" fill-rule="nonzero" fill-opacity="1"/><path d="M61 44.2C61 48.066 57.866 51.2 54 51.2 50.134 51.2 47 48.066 47 44.2 47 40.334 50.134 37.2 54 37.2 57.866 37.2 61 40.334 61 44.2Z" fill="#FFFFFF" fill-rule="nonzero" fill-opacity="1"/><path d="M86 44.2C86 48.066 82.866 51.2 79 51.2 75.134 51.2 72 48.066 72 44.2 72 40.334 75.134 37.2 79 37.2 82.866 37.2 86 40.334 86 44.2Z" fill="#FFFFFF" fill-rule="nonzero" fill-opacity="1"/><path d="M96.8 76.8 92.3 60.2C92.1 59.6 91.8 59 91.4 58.6 89.5 56.6 87.1 55.1 84.5 54.2 82.8 53.6 81 53.3 79.1 53.3 77.2 53.3 75.4 53.6 73.7 54.2 71 55.1 68.7 56.6 66.8 58.6 66.4 59.1 66.1 59.6 65.9 60.2L61.4 76.8C61 78.4 61.8 80.2 63.5 80.6 63.8 80.7 64 80.7 64.3 80.7 65.6 80.7 66.8 79.8 67.2 78.5L71.2 63.9 71.2 114.8 77.2 114.8 77.2 86.2 81.2 86.2 81.2 114.7 87.2 114.7 87.2 63.9 91.2 78.5C91.6 79.8 92.8 80.7 94.1 80.7 94.4 80.7 94.6 80.7 94.9 80.6 96.3 80.2 97.2 78.4 96.8 76.8Z" fill="#FFFFFF" fill-rule="nonzero" fill-opacity="1"/><path d="M59.3 76.3 63.8 59.7C64 58.8 64.5 58 65 57.3 63.4 55.9 61.4 54.8 59.3 54.1 57.6 53.5 55.8 53.2 53.9 53.2 52 53.2 50.2 53.5 48.5 54.1 45.8 55 43.5 56.5 41.6 58.5 41.2 59 40.9 59.5 40.7 60.1L36.2 76.8C35.8 78.4 36.6 80.2 38.3 80.6 38.6 80.7 38.8 80.7 39.1 80.7 40.4 80.7 41.6 79.8 42 78.5L46 63.9 46 114.8 52 114.8 52 86.2 56 86.2 56 114.7 62 114.7 62 82.3C59.9 81.3 58.7 78.8 59.3 76.3Z" fill="#FFFFFF" fill-rule="nonzero" fill-opacity="1"/><path d="M121.8 76.8 117.2 60.2C117 59.6 116.7 59 116.3 58.6 114.4 56.6 112 55.1 109.4 54.2 107.7 53.6 105.9 53.3 104 53.3 102.1 53.3 100.3 53.6 98.6 54.2 96.5 54.9 94.6 56 92.9 57.4 93.5 58.1 93.9 58.9 94.1 59.7L98.6 76.3C99.3 78.8 98 81.3 95.9 82.3L95.9 114.8 101.9 114.8 101.9 86.2 105.9 86.2 105.9 114.7 111.9 114.7 111.9 63.9 115.9 78.5C116.3 79.8 117.5 80.7 118.8 80.7 119.1 80.7 119.3 80.7 119.6 80.6 121.3 80.2 122.2 78.4 121.8 76.8Z" fill="#FFFFFF" fill-rule="nonzero" fill-opacity="1"/></g></g></g></g></g></svg>