<svg width="1600" height="1600" viewBox="0 0 1600 1600" fill="none" xmlns="http://www.w3.org/2000/svg">
<path d="M278.19 728.68C270.503 763.664 244.742 791.888 210.602 802.722C176.466 813.56 139.143 805.357 112.69 781.211C86.2368 757.065 74.6741 720.643 82.3621 685.659C90.0444 650.68 115.81 622.456 149.946 611.623C184.082 600.784 221.41 608.987 247.863 633.134C274.311 657.279 285.874 693.702 278.191 728.68H278.19Z" fill="white"/>
<path d="M426.197 1094.51C405.224 1073.93 301.88 958.107 280.797 934.067C259.948 910.286 255.01 901.234 249.885 877.379C247.364 865.655 247.489 858.406 250.505 840.63C257.151 801.463 274.65 773.422 307.926 748.584L326.681 734.589L324.353 591.429C323.071 512.689 322.879 441.509 323.915 433.269C326.176 415.347 331.54 405.285 343.541 396.462C363.817 381.555 392.953 381.295 410.358 395.863C426.921 409.723 429.749 428.197 432.327 539.223C435.832 690.41 417.671 705.93 439.426 697.476C470.677 685.341 498.145 655.435 537.265 593.003C582.218 521.268 598.634 500.29 614.453 494.353C640.307 484.649 671.859 498.451 681.614 523.727C686.359 536.024 684.276 556.024 676.573 572.118C666.744 592.644 587.739 719.318 575.927 733.478C566.297 745.03 555.687 752.842 511.995 780.546C483.183 798.811 459.255 815.374 458.823 817.343C457.787 822.062 476.463 844.979 510.459 880.698C546.553 918.615 579.558 954.995 578.845 958.239C547.323 984.062 455.809 1123.39 426.191 1094.51L426.197 1094.51Z" fill="white"/>
<path d="M1037.2 1419.07C1020.86 1411.65 1006.74 1400.74 940.634 1344.46C904.02 1313.29 862.056 1277.68 847.374 1265.33L820.681 1242.87L758.665 1226.84C585.238 1182.02 534.452 1167.51 502.038 1153.53C488.721 1147.79 454.913 1115.9 455.476 1113.33C455.679 1112.4 482.558 1109.53 503.345 1087.21C598.553 998.811 653.652 875.713 750.305 790.113C762.576 779.613 767.669 778.103 790.122 778.306C832.472 778.691 976.522 794.566 1015.03 803.103C1043.35 809.379 1072.99 815.187 1083.59 830.958C1104.45 862.015 1100.92 901.739 1068.43 920.707C1047.44 932.962 1009.85 936.358 917.692 925.655C835.108 916.067 826.306 916.525 807.374 931.468C793.921 942.082 706.844 1052.51 704.885 1061.45C704.151 1064.79 719.521 1072.76 739.656 1079.48C751.598 1083.47 785.161 1093.54 814.234 1101.88C867.792 1117.23 889.224 1124.62 902.374 1132.27C911.218 1137.41 1076.64 1280.92 1095.49 1299.82C1114.24 1318.6 1125.83 1336.24 1127.72 1348.88C1130.16 1365.18 1121.75 1393.46 1111.35 1403.94C1091.08 1424.37 1061.97 1430.3 1037.2 1419.06L1037.2 1419.07Z" fill="white"/>
<path d="M396.628 1298C383.368 1272.57 358.055 1191.96 358.879 1184.04C359.702 1176.11 402.171 1158.19 421.734 1152.62C445.583 1145.98 453.056 1146.51 459.827 1155.32C470.431 1169.11 497.072 1239.71 499.442 1260.31C500.306 1267.81 499.619 1269.25 493.166 1273.43C452.9 1292.71 406.644 1316.96 396.63 1298L396.628 1298Z" fill="white"/>
<path d="M1512.78 96.2656C1470.38 82.9635 157.793 96.2656 157.793 96.2656C157.793 96.2656 121.377 113.823 115.751 135.074C110.131 156.324 122.527 184.236 138.386 206.22C154.246 228.199 175.506 254.511 209.532 257.959C243.557 261.412 289.62 241.85 316.25 261.193C342.881 280.537 357.938 337.959 384.162 358.209C410.386 378.459 624.322 460.163 652.578 477.86C680.834 495.558 897.234 552.214 924.226 565.173C951.215 578.136 1028.74 592.792 1056.82 629.85C1084.89 666.907 1121.18 735.662 1131.2 775.371C1141.21 815.085 1105.2 939.626 1137.66 995.274C1170.13 1050.91 1269.89 1087.21 1318.72 1144.5C1367.55 1201.79 1393.95 1285.95 1412.54 1344.54C1431.13 1403.11 1409.61 1465.93 1438.41 1490.06C1467.21 1514.19 1510.11 1520.16 1516.02 1490.06C1521.93 1459.96 1517.57 460.266 1512.78 96.2656Z" fill="white" stroke="white" stroke-width="2.26368"/>
</svg>
