<svg width="98" height="96" xmlns="http://www.w3.org/2000/svg" xmlns:xlink="http://www.w3.org/1999/xlink" xml:space="preserve" overflow="hidden"><g transform="translate(-30 0)"><g><g><g><g><path d="M99 30.2C96.6 30.2 94.6 28.2 94.7 25.7 94.7 23.3 96.7 21.3 99.1 21.3 101.5 21.3 103.5 23.3 103.5 25.7 103.5 26.9 103 28 102.2 28.8 101.3 29.7 100.2 30.2 99 30.2ZM94.7 16.3C92.5 17.1 90.8 18.8 89.7 20.8 88.3 23.5 88.1 26.6 89.2 29.4L94 39.8 97.2 46.4C97.5 47.1 98.2 47.5 99 47.5 99.8 47.5 100.5 47.1 100.8 46.4L104 39.8 108.8 29.5C109.3 28.3 109.5 27 109.5 25.7 109.5 18.7 102.3 13.4 94.7 16.3Z" fill="#FFFFFF" fill-rule="nonzero" fill-opacity="1"/><path d="M77 72.8 61 64.8 61 32.2 77 40.2 77 72.8ZM57 64.8 45 70.8 45 38.2 57 32.2 57 64.8ZM112.4 31.2 109.9 36.6 113 38.2 113 70.8 101 64.8 101 51.5 97 51.5 97 64.8 81 72.8 81 40.2 88.1 36.6 85.6 31.2 79 34.5 59 24.5 39 34.5 39 80.5 59 70.5 79 80.5 99 70.5 119 80.5 119 34.5 112.4 31.2Z" fill="#FFFFFF" fill-rule="nonzero" fill-opacity="1"/></g></g></g></g></g></svg>